<mxfile host="Electron" modified="2023-12-03T19:02:14.298Z" agent="Mozilla/5.0 (X11; Linux x86_64) AppleWebKit/537.36 (KHTML, like Gecko) draw.io/22.1.2 Chrome/114.0.5735.289 Electron/25.9.4 Safari/537.36" etag="nibvOgxktHnsVGdFVM1a" version="22.1.2" type="device">
  <diagram id="C5RBs43oDa-KdzZeNtuy" name="Page-1">
    <mxGraphModel dx="3217" dy="1397" grid="1" gridSize="10" guides="1" tooltips="1" connect="1" arrows="1" fold="1" page="1" pageScale="1" pageWidth="827" pageHeight="1169" math="0" shadow="0">
      <root>
        <mxCell id="WIyWlLk6GJQsqaUBKTNV-0" />
        <mxCell id="WIyWlLk6GJQsqaUBKTNV-1" parent="WIyWlLk6GJQsqaUBKTNV-0" />
        <mxCell id="4BnXzk5bhoHRPyOUfvlC-36" value="&lt;br&gt;&lt;br&gt;&lt;br&gt;&lt;br&gt;&lt;br&gt;&lt;br&gt;&lt;br&gt;&lt;br&gt;&lt;br&gt;&lt;br&gt;&lt;br&gt;&lt;br&gt;&lt;br&gt;&lt;br&gt;&lt;br&gt;&lt;br&gt;&lt;br&gt;&lt;br&gt;&lt;br&gt;&lt;br&gt;CATCH BLOCK STATE" style="rounded=1;whiteSpace=wrap;html=1;arcSize=7;" vertex="1" parent="WIyWlLk6GJQsqaUBKTNV-1">
          <mxGeometry x="-120" y="750" width="140" height="330" as="geometry" />
        </mxCell>
        <mxCell id="7er4wkN931L5qloyh4-r-80" value="&lt;br&gt;&lt;br&gt;&lt;br&gt;&lt;br&gt;&lt;br&gt;&lt;br&gt;&lt;br&gt;&lt;br&gt;&lt;br&gt;&lt;br&gt;&lt;br&gt;&lt;br&gt;&lt;br&gt;&lt;br&gt;&lt;br&gt;&lt;br&gt;&lt;br&gt;&lt;br&gt;&lt;br&gt;&lt;br&gt;&lt;br&gt;&lt;br&gt;&lt;br&gt;DEPOSIT STATE" style="rounded=1;whiteSpace=wrap;html=1;arcSize=6;" parent="WIyWlLk6GJQsqaUBKTNV-1" vertex="1">
          <mxGeometry x="660" y="510" width="150" height="370" as="geometry" />
        </mxCell>
        <mxCell id="WIyWlLk6GJQsqaUBKTNV-2" value="" style="rounded=0;html=1;jettySize=auto;orthogonalLoop=1;fontSize=11;endArrow=block;endFill=0;endSize=8;strokeWidth=1;shadow=0;labelBackgroundColor=none;edgeStyle=orthogonalEdgeStyle;entryX=0.5;entryY=0;entryDx=0;entryDy=0;" parent="WIyWlLk6GJQsqaUBKTNV-1" source="WIyWlLk6GJQsqaUBKTNV-3" target="7er4wkN931L5qloyh4-r-3" edge="1">
          <mxGeometry relative="1" as="geometry">
            <mxPoint x="90" y="250" as="targetPoint" />
          </mxGeometry>
        </mxCell>
        <mxCell id="7er4wkN931L5qloyh4-r-0" value="Button Press" style="edgeLabel;html=1;align=center;verticalAlign=middle;resizable=0;points=[];" parent="WIyWlLk6GJQsqaUBKTNV-2" vertex="1" connectable="0">
          <mxGeometry x="0.08" y="-1" relative="1" as="geometry">
            <mxPoint x="1" y="-23" as="offset" />
          </mxGeometry>
        </mxCell>
        <mxCell id="WIyWlLk6GJQsqaUBKTNV-3" value="STOPPED STATE" style="rounded=1;whiteSpace=wrap;html=1;fontSize=12;glass=0;strokeWidth=1;shadow=0;" parent="WIyWlLk6GJQsqaUBKTNV-1" vertex="1">
          <mxGeometry x="160" y="50" width="120" height="40" as="geometry" />
        </mxCell>
        <mxCell id="WIyWlLk6GJQsqaUBKTNV-9" value="Yes" style="edgeStyle=orthogonalEdgeStyle;rounded=0;html=1;jettySize=auto;orthogonalLoop=1;fontSize=11;endArrow=block;endFill=0;endSize=8;strokeWidth=1;shadow=0;labelBackgroundColor=none;" parent="WIyWlLk6GJQsqaUBKTNV-1" edge="1">
          <mxGeometry y="10" relative="1" as="geometry">
            <mxPoint as="offset" />
            <mxPoint x="320" y="330" as="targetPoint" />
          </mxGeometry>
        </mxCell>
        <mxCell id="7er4wkN931L5qloyh4-r-4" style="edgeStyle=orthogonalEdgeStyle;rounded=0;orthogonalLoop=1;jettySize=auto;html=1;exitX=0.5;exitY=1;exitDx=0;exitDy=0;entryX=0.5;entryY=0;entryDx=0;entryDy=0;" parent="WIyWlLk6GJQsqaUBKTNV-1" source="7er4wkN931L5qloyh4-r-3" target="7er4wkN931L5qloyh4-r-7" edge="1">
          <mxGeometry relative="1" as="geometry">
            <mxPoint x="219.8571428571429" y="280" as="targetPoint" />
          </mxGeometry>
        </mxCell>
        <mxCell id="7er4wkN931L5qloyh4-r-9" value="Front sensors activating" style="edgeLabel;html=1;align=center;verticalAlign=middle;resizable=0;points=[];" parent="7er4wkN931L5qloyh4-r-4" vertex="1" connectable="0">
          <mxGeometry x="-0.3524" y="-1" relative="1" as="geometry">
            <mxPoint x="1" y="-3" as="offset" />
          </mxGeometry>
        </mxCell>
        <mxCell id="7er4wkN931L5qloyh4-r-3" value="INITIAL STATE" style="rounded=1;whiteSpace=wrap;html=1;" parent="WIyWlLk6GJQsqaUBKTNV-1" vertex="1">
          <mxGeometry x="160" y="170" width="120" height="40" as="geometry" />
        </mxCell>
        <mxCell id="7er4wkN931L5qloyh4-r-12" style="edgeStyle=orthogonalEdgeStyle;rounded=0;orthogonalLoop=1;jettySize=auto;html=1;exitX=0.5;exitY=1;exitDx=0;exitDy=0;entryX=0.5;entryY=0;entryDx=0;entryDy=0;" parent="WIyWlLk6GJQsqaUBKTNV-1" source="7er4wkN931L5qloyh4-r-7" target="7er4wkN931L5qloyh4-r-13" edge="1">
          <mxGeometry relative="1" as="geometry">
            <mxPoint x="219.8571428571429" y="390" as="targetPoint" />
          </mxGeometry>
        </mxCell>
        <mxCell id="7er4wkN931L5qloyh4-r-14" value="Back sensors activating" style="edgeLabel;html=1;align=center;verticalAlign=middle;resizable=0;points=[];" parent="7er4wkN931L5qloyh4-r-12" vertex="1" connectable="0">
          <mxGeometry x="-0.1143" y="-2" relative="1" as="geometry">
            <mxPoint x="2" y="-20" as="offset" />
          </mxGeometry>
        </mxCell>
        <mxCell id="7er4wkN931L5qloyh4-r-7" value="LINE FOLLOWING" style="rounded=1;whiteSpace=wrap;html=1;" parent="WIyWlLk6GJQsqaUBKTNV-1" vertex="1">
          <mxGeometry x="160" y="280" width="120" height="40" as="geometry" />
        </mxCell>
        <mxCell id="7er4wkN931L5qloyh4-r-15" style="edgeStyle=orthogonalEdgeStyle;rounded=0;orthogonalLoop=1;jettySize=auto;html=1;exitX=1;exitY=0.5;exitDx=0;exitDy=0;entryX=0;entryY=0.5;entryDx=0;entryDy=0;" parent="WIyWlLk6GJQsqaUBKTNV-1" source="7er4wkN931L5qloyh4-r-13" target="7er4wkN931L5qloyh4-r-17" edge="1">
          <mxGeometry relative="1" as="geometry">
            <mxPoint x="350" y="435.28571428571433" as="targetPoint" />
          </mxGeometry>
        </mxCell>
        <mxCell id="7er4wkN931L5qloyh4-r-16" value="Rotate!" style="edgeLabel;html=1;align=center;verticalAlign=middle;resizable=0;points=[];" parent="7er4wkN931L5qloyh4-r-15" vertex="1" connectable="0">
          <mxGeometry x="-0.1934" y="-1" relative="1" as="geometry">
            <mxPoint x="-29" y="-1" as="offset" />
          </mxGeometry>
        </mxCell>
        <mxCell id="7er4wkN931L5qloyh4-r-18" style="edgeStyle=orthogonalEdgeStyle;rounded=0;orthogonalLoop=1;jettySize=auto;html=1;exitX=0.5;exitY=1;exitDx=0;exitDy=0;entryX=0.5;entryY=0;entryDx=0;entryDy=0;" parent="WIyWlLk6GJQsqaUBKTNV-1" source="7er4wkN931L5qloyh4-r-13" target="7er4wkN931L5qloyh4-r-22" edge="1">
          <mxGeometry relative="1" as="geometry">
            <mxPoint x="219.8571428571429" y="550" as="targetPoint" />
          </mxGeometry>
        </mxCell>
        <mxCell id="7er4wkN931L5qloyh4-r-19" value="Check next&lt;br&gt;junction!" style="edgeLabel;html=1;align=center;verticalAlign=middle;resizable=0;points=[];" parent="7er4wkN931L5qloyh4-r-18" vertex="1" connectable="0">
          <mxGeometry x="-0.3385" y="-1" relative="1" as="geometry">
            <mxPoint x="1" y="7" as="offset" />
          </mxGeometry>
        </mxCell>
        <mxCell id="7er4wkN931L5qloyh4-r-28" style="edgeStyle=orthogonalEdgeStyle;rounded=0;orthogonalLoop=1;jettySize=auto;html=1;exitX=0.263;exitY=0.199;exitDx=0;exitDy=0;exitPerimeter=0;" parent="WIyWlLk6GJQsqaUBKTNV-1" source="7er4wkN931L5qloyh4-r-13" edge="1">
          <mxGeometry relative="1" as="geometry">
            <mxPoint x="220" y="260" as="targetPoint" />
            <Array as="points">
              <mxPoint x="194" y="430" />
              <mxPoint x="80" y="430" />
              <mxPoint x="80" y="260" />
            </Array>
          </mxGeometry>
        </mxCell>
        <mxCell id="7er4wkN931L5qloyh4-r-29" value="Move&lt;br&gt;Forward!" style="edgeLabel;html=1;align=center;verticalAlign=middle;resizable=0;points=[];" parent="7er4wkN931L5qloyh4-r-28" vertex="1" connectable="0">
          <mxGeometry x="-0.8409" y="1" relative="1" as="geometry">
            <mxPoint x="-32" y="-1" as="offset" />
          </mxGeometry>
        </mxCell>
        <mxCell id="4BnXzk5bhoHRPyOUfvlC-7" style="edgeStyle=orthogonalEdgeStyle;rounded=0;orthogonalLoop=1;jettySize=auto;html=1;exitX=0.378;exitY=0.878;exitDx=0;exitDy=0;exitPerimeter=0;" edge="1" parent="WIyWlLk6GJQsqaUBKTNV-1" source="7er4wkN931L5qloyh4-r-13">
          <mxGeometry relative="1" as="geometry">
            <mxPoint x="10" y="540" as="targetPoint" />
            <Array as="points">
              <mxPoint x="207" y="480" />
              <mxPoint x="90" y="480" />
              <mxPoint x="90" y="540" />
            </Array>
          </mxGeometry>
        </mxCell>
        <mxCell id="4BnXzk5bhoHRPyOUfvlC-9" value="Move while&lt;br&gt;checking" style="edgeLabel;html=1;align=center;verticalAlign=middle;resizable=0;points=[];" vertex="1" connectable="0" parent="4BnXzk5bhoHRPyOUfvlC-7">
          <mxGeometry x="-0.4894" y="3" relative="1" as="geometry">
            <mxPoint x="-16" y="-4" as="offset" />
          </mxGeometry>
        </mxCell>
        <mxCell id="7er4wkN931L5qloyh4-r-13" value="Next&lt;br&gt;command?" style="rhombus;whiteSpace=wrap;html=1;" parent="WIyWlLk6GJQsqaUBKTNV-1" vertex="1">
          <mxGeometry x="165" y="410" width="110" height="90" as="geometry" />
        </mxCell>
        <mxCell id="7er4wkN931L5qloyh4-r-27" style="edgeStyle=orthogonalEdgeStyle;rounded=0;orthogonalLoop=1;jettySize=auto;html=1;exitX=0.5;exitY=0;exitDx=0;exitDy=0;" parent="WIyWlLk6GJQsqaUBKTNV-1" source="7er4wkN931L5qloyh4-r-17" edge="1">
          <mxGeometry relative="1" as="geometry">
            <mxPoint x="220" y="370" as="targetPoint" />
            <Array as="points">
              <mxPoint x="470" y="370" />
              <mxPoint x="220" y="370" />
            </Array>
          </mxGeometry>
        </mxCell>
        <mxCell id="7er4wkN931L5qloyh4-r-30" value="Front Sensors activating" style="edgeLabel;html=1;align=center;verticalAlign=middle;resizable=0;points=[];" parent="7er4wkN931L5qloyh4-r-27" vertex="1" connectable="0">
          <mxGeometry x="-0.8036" y="-1" relative="1" as="geometry">
            <mxPoint as="offset" />
          </mxGeometry>
        </mxCell>
        <mxCell id="7er4wkN931L5qloyh4-r-17" value="CHANGE&lt;br&gt;DIRECTION" style="rounded=1;whiteSpace=wrap;html=1;" parent="WIyWlLk6GJQsqaUBKTNV-1" vertex="1">
          <mxGeometry x="410" y="435" width="120" height="40" as="geometry" />
        </mxCell>
        <mxCell id="7er4wkN931L5qloyh4-r-32" style="edgeStyle=orthogonalEdgeStyle;rounded=0;orthogonalLoop=1;jettySize=auto;html=1;exitX=1;exitY=0.5;exitDx=0;exitDy=0;" parent="WIyWlLk6GJQsqaUBKTNV-1" source="7er4wkN931L5qloyh4-r-20" edge="1">
          <mxGeometry relative="1" as="geometry">
            <mxPoint x="220" y="390" as="targetPoint" />
            <Array as="points">
              <mxPoint x="351" y="715" />
              <mxPoint x="351" y="390" />
            </Array>
          </mxGeometry>
        </mxCell>
        <mxCell id="7er4wkN931L5qloyh4-r-33" value="No cube" style="edgeLabel;html=1;align=center;verticalAlign=middle;resizable=0;points=[];" parent="7er4wkN931L5qloyh4-r-32" vertex="1" connectable="0">
          <mxGeometry x="-0.9417" y="2" relative="1" as="geometry">
            <mxPoint x="20" y="2" as="offset" />
          </mxGeometry>
        </mxCell>
        <mxCell id="7er4wkN931L5qloyh4-r-34" style="edgeStyle=orthogonalEdgeStyle;rounded=0;orthogonalLoop=1;jettySize=auto;html=1;exitX=0.5;exitY=1;exitDx=0;exitDy=0;entryX=0.496;entryY=-0.075;entryDx=0;entryDy=0;entryPerimeter=0;" parent="WIyWlLk6GJQsqaUBKTNV-1" source="7er4wkN931L5qloyh4-r-20" target="7er4wkN931L5qloyh4-r-37" edge="1">
          <mxGeometry relative="1" as="geometry">
            <mxPoint x="220" y="790" as="targetPoint" />
          </mxGeometry>
        </mxCell>
        <mxCell id="7er4wkN931L5qloyh4-r-35" value="Cube" style="edgeLabel;html=1;align=center;verticalAlign=middle;resizable=0;points=[];" parent="7er4wkN931L5qloyh4-r-34" vertex="1" connectable="0">
          <mxGeometry x="-0.091" y="-4" relative="1" as="geometry">
            <mxPoint x="4" y="-1" as="offset" />
          </mxGeometry>
        </mxCell>
        <mxCell id="7er4wkN931L5qloyh4-r-20" value="CHECK" style="rounded=1;whiteSpace=wrap;html=1;" parent="WIyWlLk6GJQsqaUBKTNV-1" vertex="1">
          <mxGeometry x="165" y="700" width="110" height="30" as="geometry" />
        </mxCell>
        <mxCell id="7er4wkN931L5qloyh4-r-23" style="edgeStyle=orthogonalEdgeStyle;rounded=0;orthogonalLoop=1;jettySize=auto;html=1;exitX=0.5;exitY=1;exitDx=0;exitDy=0;entryX=0.5;entryY=0;entryDx=0;entryDy=0;" parent="WIyWlLk6GJQsqaUBKTNV-1" source="7er4wkN931L5qloyh4-r-22" target="7er4wkN931L5qloyh4-r-20" edge="1">
          <mxGeometry relative="1" as="geometry" />
        </mxCell>
        <mxCell id="7er4wkN931L5qloyh4-r-24" value="No" style="edgeLabel;html=1;align=center;verticalAlign=middle;resizable=0;points=[];" parent="7er4wkN931L5qloyh4-r-23" vertex="1" connectable="0">
          <mxGeometry x="-0.2312" y="-2" relative="1" as="geometry">
            <mxPoint as="offset" />
          </mxGeometry>
        </mxCell>
        <mxCell id="7er4wkN931L5qloyh4-r-25" style="edgeStyle=orthogonalEdgeStyle;rounded=0;orthogonalLoop=1;jettySize=auto;html=1;" parent="WIyWlLk6GJQsqaUBKTNV-1" edge="1">
          <mxGeometry relative="1" as="geometry">
            <mxPoint x="219" y="380" as="targetPoint" />
            <mxPoint x="159" y="605" as="sourcePoint" />
            <Array as="points">
              <mxPoint x="49" y="605" />
              <mxPoint x="49" y="380" />
            </Array>
          </mxGeometry>
        </mxCell>
        <mxCell id="7er4wkN931L5qloyh4-r-26" value="Yes" style="edgeLabel;html=1;align=center;verticalAlign=middle;resizable=0;points=[];" parent="7er4wkN931L5qloyh4-r-25" vertex="1" connectable="0">
          <mxGeometry x="0.0206" y="1" relative="1" as="geometry">
            <mxPoint x="71" y="153" as="offset" />
          </mxGeometry>
        </mxCell>
        <mxCell id="7er4wkN931L5qloyh4-r-22" value="Has the junction&lt;br&gt;already been checked?" style="shape=hexagon;perimeter=hexagonPerimeter2;whiteSpace=wrap;html=1;fixedSize=1;" parent="WIyWlLk6GJQsqaUBKTNV-1" vertex="1">
          <mxGeometry x="160" y="565" width="120" height="80" as="geometry" />
        </mxCell>
        <mxCell id="7er4wkN931L5qloyh4-r-39" style="edgeStyle=orthogonalEdgeStyle;rounded=0;orthogonalLoop=1;jettySize=auto;html=1;exitX=0.5;exitY=1;exitDx=0;exitDy=0;entryX=0.5;entryY=0;entryDx=0;entryDy=0;" parent="WIyWlLk6GJQsqaUBKTNV-1" source="7er4wkN931L5qloyh4-r-37" target="7er4wkN931L5qloyh4-r-49" edge="1">
          <mxGeometry relative="1" as="geometry">
            <mxPoint x="220" y="900" as="targetPoint" />
          </mxGeometry>
        </mxCell>
        <mxCell id="7er4wkN931L5qloyh4-r-40" value="Back sensors activating" style="edgeLabel;html=1;align=center;verticalAlign=middle;resizable=0;points=[];" parent="7er4wkN931L5qloyh4-r-39" vertex="1" connectable="0">
          <mxGeometry x="-0.0744" y="3" relative="1" as="geometry">
            <mxPoint as="offset" />
          </mxGeometry>
        </mxCell>
        <mxCell id="7er4wkN931L5qloyh4-r-37" value="LINE FOLLOWING" style="rounded=1;whiteSpace=wrap;html=1;" parent="WIyWlLk6GJQsqaUBKTNV-1" vertex="1">
          <mxGeometry x="160" y="790" width="120" height="30" as="geometry" />
        </mxCell>
        <mxCell id="7er4wkN931L5qloyh4-r-51" style="edgeStyle=orthogonalEdgeStyle;rounded=0;orthogonalLoop=1;jettySize=auto;html=1;exitX=0.5;exitY=1;exitDx=0;exitDy=0;entryX=0;entryY=0.5;entryDx=0;entryDy=0;" parent="WIyWlLk6GJQsqaUBKTNV-1" source="7er4wkN931L5qloyh4-r-49" target="7er4wkN931L5qloyh4-r-54" edge="1">
          <mxGeometry relative="1" as="geometry">
            <mxPoint x="480" y="820" as="targetPoint" />
            <Array as="points">
              <mxPoint x="220" y="960" />
              <mxPoint x="315" y="960" />
              <mxPoint x="315" y="820" />
            </Array>
          </mxGeometry>
        </mxCell>
        <mxCell id="7er4wkN931L5qloyh4-r-52" value="5 second delay" style="edgeLabel;html=1;align=center;verticalAlign=middle;resizable=0;points=[];" parent="7er4wkN931L5qloyh4-r-51" vertex="1" connectable="0">
          <mxGeometry x="-0.2157" y="-1" relative="1" as="geometry">
            <mxPoint x="-96" y="-10" as="offset" />
          </mxGeometry>
        </mxCell>
        <mxCell id="7er4wkN931L5qloyh4-r-49" value="PICKUP DELAY" style="rounded=1;whiteSpace=wrap;html=1;" parent="WIyWlLk6GJQsqaUBKTNV-1" vertex="1">
          <mxGeometry x="160" y="880" width="120" height="30" as="geometry" />
        </mxCell>
        <mxCell id="7er4wkN931L5qloyh4-r-56" style="edgeStyle=orthogonalEdgeStyle;rounded=0;orthogonalLoop=1;jettySize=auto;html=1;exitX=0.5;exitY=0;exitDx=0;exitDy=0;entryX=0.5;entryY=1;entryDx=0;entryDy=0;" parent="WIyWlLk6GJQsqaUBKTNV-1" source="7er4wkN931L5qloyh4-r-54" target="7er4wkN931L5qloyh4-r-59" edge="1">
          <mxGeometry relative="1" as="geometry">
            <mxPoint x="510" y="710" as="targetPoint" />
          </mxGeometry>
        </mxCell>
        <mxCell id="7er4wkN931L5qloyh4-r-57" value="Needs to rotate" style="edgeLabel;html=1;align=center;verticalAlign=middle;resizable=0;points=[];" parent="7er4wkN931L5qloyh4-r-56" vertex="1" connectable="0">
          <mxGeometry x="0.0656" y="1" relative="1" as="geometry">
            <mxPoint as="offset" />
          </mxGeometry>
        </mxCell>
        <mxCell id="7er4wkN931L5qloyh4-r-61" style="edgeStyle=orthogonalEdgeStyle;rounded=0;orthogonalLoop=1;jettySize=auto;html=1;exitX=0.5;exitY=1;exitDx=0;exitDy=0;" parent="WIyWlLk6GJQsqaUBKTNV-1" source="7er4wkN931L5qloyh4-r-54" edge="1">
          <mxGeometry relative="1" as="geometry">
            <mxPoint x="510" y="940" as="targetPoint" />
          </mxGeometry>
        </mxCell>
        <mxCell id="7er4wkN931L5qloyh4-r-62" value="Needs to move&lt;br&gt;forward" style="edgeLabel;html=1;align=center;verticalAlign=middle;resizable=0;points=[];" parent="7er4wkN931L5qloyh4-r-61" vertex="1" connectable="0">
          <mxGeometry x="-0.2049" y="-3" relative="1" as="geometry">
            <mxPoint as="offset" />
          </mxGeometry>
        </mxCell>
        <mxCell id="7er4wkN931L5qloyh4-r-65" style="edgeStyle=orthogonalEdgeStyle;rounded=0;orthogonalLoop=1;jettySize=auto;html=1;exitX=1;exitY=0.5;exitDx=0;exitDy=0;entryX=0;entryY=0.5;entryDx=0;entryDy=0;" parent="WIyWlLk6GJQsqaUBKTNV-1" source="7er4wkN931L5qloyh4-r-54" target="7er4wkN931L5qloyh4-r-71" edge="1">
          <mxGeometry relative="1" as="geometry">
            <mxPoint x="650" y="820" as="targetPoint" />
          </mxGeometry>
        </mxCell>
        <mxCell id="7er4wkN931L5qloyh4-r-66" value="At start&lt;br&gt;square" style="edgeLabel;html=1;align=center;verticalAlign=middle;resizable=0;points=[];" parent="7er4wkN931L5qloyh4-r-65" vertex="1" connectable="0">
          <mxGeometry x="-0.282" y="-2" relative="1" as="geometry">
            <mxPoint as="offset" />
          </mxGeometry>
        </mxCell>
        <mxCell id="7er4wkN931L5qloyh4-r-54" value="Path to the&lt;br&gt;start square" style="shape=hexagon;perimeter=hexagonPerimeter2;whiteSpace=wrap;html=1;fixedSize=1;" parent="WIyWlLk6GJQsqaUBKTNV-1" vertex="1">
          <mxGeometry x="450" y="780" width="120" height="80" as="geometry" />
        </mxCell>
        <mxCell id="7er4wkN931L5qloyh4-r-60" style="edgeStyle=orthogonalEdgeStyle;rounded=0;orthogonalLoop=1;jettySize=auto;html=1;exitX=0.5;exitY=0;exitDx=0;exitDy=0;" parent="WIyWlLk6GJQsqaUBKTNV-1" source="7er4wkN931L5qloyh4-r-59" edge="1">
          <mxGeometry relative="1" as="geometry">
            <mxPoint x="420" y="820" as="targetPoint" />
          </mxGeometry>
        </mxCell>
        <mxCell id="7er4wkN931L5qloyh4-r-59" value="CHANGE&lt;br&gt;DIRECTION" style="rounded=1;whiteSpace=wrap;html=1;" parent="WIyWlLk6GJQsqaUBKTNV-1" vertex="1">
          <mxGeometry x="450" y="670" width="120" height="40" as="geometry" />
        </mxCell>
        <mxCell id="7er4wkN931L5qloyh4-r-64" style="edgeStyle=orthogonalEdgeStyle;rounded=0;orthogonalLoop=1;jettySize=auto;html=1;exitX=0.5;exitY=1;exitDx=0;exitDy=0;" parent="WIyWlLk6GJQsqaUBKTNV-1" source="7er4wkN931L5qloyh4-r-63" edge="1">
          <mxGeometry relative="1" as="geometry">
            <mxPoint x="410" y="820" as="targetPoint" />
          </mxGeometry>
        </mxCell>
        <mxCell id="7er4wkN931L5qloyh4-r-63" value="LINE&lt;br&gt;FOLLOWING" style="rounded=1;whiteSpace=wrap;html=1;" parent="WIyWlLk6GJQsqaUBKTNV-1" vertex="1">
          <mxGeometry x="450" y="940" width="120" height="40" as="geometry" />
        </mxCell>
        <mxCell id="7er4wkN931L5qloyh4-r-71" value="Move forward&lt;br&gt;a small amount" style="rounded=0;whiteSpace=wrap;html=1;" parent="WIyWlLk6GJQsqaUBKTNV-1" vertex="1">
          <mxGeometry x="680" y="795" width="110" height="50" as="geometry" />
        </mxCell>
        <mxCell id="7er4wkN931L5qloyh4-r-78" style="edgeStyle=orthogonalEdgeStyle;rounded=0;orthogonalLoop=1;jettySize=auto;html=1;exitX=0.5;exitY=0;exitDx=0;exitDy=0;entryX=0.5;entryY=1;entryDx=0;entryDy=0;" parent="WIyWlLk6GJQsqaUBKTNV-1" source="7er4wkN931L5qloyh4-r-72" target="7er4wkN931L5qloyh4-r-74" edge="1">
          <mxGeometry relative="1" as="geometry" />
        </mxCell>
        <mxCell id="7er4wkN931L5qloyh4-r-72" value="Rotate 90°" style="rounded=0;whiteSpace=wrap;html=1;" parent="WIyWlLk6GJQsqaUBKTNV-1" vertex="1">
          <mxGeometry x="680" y="730" width="110" height="40" as="geometry" />
        </mxCell>
        <mxCell id="7er4wkN931L5qloyh4-r-79" style="edgeStyle=orthogonalEdgeStyle;rounded=0;orthogonalLoop=1;jettySize=auto;html=1;exitX=0.5;exitY=0;exitDx=0;exitDy=0;entryX=0.5;entryY=1;entryDx=0;entryDy=0;" parent="WIyWlLk6GJQsqaUBKTNV-1" source="7er4wkN931L5qloyh4-r-74" target="7er4wkN931L5qloyh4-r-75" edge="1">
          <mxGeometry relative="1" as="geometry" />
        </mxCell>
        <mxCell id="7er4wkN931L5qloyh4-r-74" value="Move forward a fixed amount" style="rounded=0;whiteSpace=wrap;html=1;" parent="WIyWlLk6GJQsqaUBKTNV-1" vertex="1">
          <mxGeometry x="680" y="670" width="110" height="40" as="geometry" />
        </mxCell>
        <mxCell id="7er4wkN931L5qloyh4-r-81" style="edgeStyle=orthogonalEdgeStyle;rounded=0;orthogonalLoop=1;jettySize=auto;html=1;exitX=0.5;exitY=0;exitDx=0;exitDy=0;" parent="WIyWlLk6GJQsqaUBKTNV-1" source="7er4wkN931L5qloyh4-r-85" edge="1">
          <mxGeometry relative="1" as="geometry">
            <mxPoint x="735.25" y="540" as="targetPoint" />
          </mxGeometry>
        </mxCell>
        <mxCell id="7er4wkN931L5qloyh4-r-75" value="Move backward" style="rounded=0;whiteSpace=wrap;html=1;" parent="WIyWlLk6GJQsqaUBKTNV-1" vertex="1">
          <mxGeometry x="680" y="610" width="110" height="40" as="geometry" />
        </mxCell>
        <mxCell id="7er4wkN931L5qloyh4-r-77" style="edgeStyle=orthogonalEdgeStyle;rounded=0;orthogonalLoop=1;jettySize=auto;html=1;exitX=0.5;exitY=0;exitDx=0;exitDy=0;entryX=0.49;entryY=1.059;entryDx=0;entryDy=0;entryPerimeter=0;" parent="WIyWlLk6GJQsqaUBKTNV-1" source="7er4wkN931L5qloyh4-r-71" target="7er4wkN931L5qloyh4-r-72" edge="1">
          <mxGeometry relative="1" as="geometry" />
        </mxCell>
        <mxCell id="7er4wkN931L5qloyh4-r-95" style="edgeStyle=orthogonalEdgeStyle;rounded=0;orthogonalLoop=1;jettySize=auto;html=1;exitX=0.5;exitY=0;exitDx=0;exitDy=0;entryX=0.5;entryY=1;entryDx=0;entryDy=0;" parent="WIyWlLk6GJQsqaUBKTNV-1" source="7er4wkN931L5qloyh4-r-84" target="7er4wkN931L5qloyh4-r-92" edge="1">
          <mxGeometry relative="1" as="geometry" />
        </mxCell>
        <mxCell id="7er4wkN931L5qloyh4-r-84" value="CHANGE&lt;br&gt;DIRECTION" style="rounded=1;whiteSpace=wrap;html=1;" parent="WIyWlLk6GJQsqaUBKTNV-1" vertex="1">
          <mxGeometry x="675" y="390" width="120" height="40" as="geometry" />
        </mxCell>
        <mxCell id="7er4wkN931L5qloyh4-r-86" value="" style="edgeStyle=orthogonalEdgeStyle;rounded=0;orthogonalLoop=1;jettySize=auto;html=1;exitX=0.5;exitY=0;exitDx=0;exitDy=0;entryX=0.5;entryY=1;entryDx=0;entryDy=0;" parent="WIyWlLk6GJQsqaUBKTNV-1" source="7er4wkN931L5qloyh4-r-75" target="7er4wkN931L5qloyh4-r-85" edge="1">
          <mxGeometry relative="1" as="geometry">
            <mxPoint x="735.25" y="540" as="targetPoint" />
            <mxPoint x="735" y="610" as="sourcePoint" />
          </mxGeometry>
        </mxCell>
        <mxCell id="7er4wkN931L5qloyh4-r-87" value="Back sensors activating" style="edgeLabel;html=1;align=center;verticalAlign=middle;resizable=0;points=[];" parent="7er4wkN931L5qloyh4-r-86" vertex="1" connectable="0">
          <mxGeometry x="-0.1457" y="1" relative="1" as="geometry">
            <mxPoint x="1" y="-3" as="offset" />
          </mxGeometry>
        </mxCell>
        <mxCell id="7er4wkN931L5qloyh4-r-88" style="edgeStyle=orthogonalEdgeStyle;rounded=0;orthogonalLoop=1;jettySize=auto;html=1;exitX=0.5;exitY=0;exitDx=0;exitDy=0;entryX=0.5;entryY=1;entryDx=0;entryDy=0;" parent="WIyWlLk6GJQsqaUBKTNV-1" source="7er4wkN931L5qloyh4-r-85" target="7er4wkN931L5qloyh4-r-89" edge="1">
          <mxGeometry relative="1" as="geometry">
            <mxPoint x="734.8924242424242" y="480" as="targetPoint" />
            <mxPoint x="734.65" y="520" as="sourcePoint" />
          </mxGeometry>
        </mxCell>
        <mxCell id="7er4wkN931L5qloyh4-r-85" value="Rotate 90°" style="rounded=0;whiteSpace=wrap;html=1;" parent="WIyWlLk6GJQsqaUBKTNV-1" vertex="1">
          <mxGeometry x="680" y="530" width="110" height="40" as="geometry" />
        </mxCell>
        <mxCell id="7er4wkN931L5qloyh4-r-89" value="LINE FOLLOWING" style="rounded=1;whiteSpace=wrap;html=1;" parent="WIyWlLk6GJQsqaUBKTNV-1" vertex="1">
          <mxGeometry x="675" y="450" width="120" height="30" as="geometry" />
        </mxCell>
        <mxCell id="7er4wkN931L5qloyh4-r-97" style="edgeStyle=orthogonalEdgeStyle;rounded=0;orthogonalLoop=1;jettySize=auto;html=1;exitX=0.5;exitY=0;exitDx=0;exitDy=0;entryX=0.5;entryY=1;entryDx=0;entryDy=0;" parent="WIyWlLk6GJQsqaUBKTNV-1" source="7er4wkN931L5qloyh4-r-92" target="7er4wkN931L5qloyh4-r-93" edge="1">
          <mxGeometry relative="1" as="geometry" />
        </mxCell>
        <mxCell id="7er4wkN931L5qloyh4-r-92" value="LINE FOLLOWING" style="rounded=1;whiteSpace=wrap;html=1;" parent="WIyWlLk6GJQsqaUBKTNV-1" vertex="1">
          <mxGeometry x="675" y="340" width="120" height="30" as="geometry" />
        </mxCell>
        <mxCell id="7er4wkN931L5qloyh4-r-99" style="edgeStyle=orthogonalEdgeStyle;rounded=0;orthogonalLoop=1;jettySize=auto;html=1;exitX=0.5;exitY=0;exitDx=0;exitDy=0;entryX=1;entryY=0.5;entryDx=0;entryDy=0;" parent="WIyWlLk6GJQsqaUBKTNV-1" source="7er4wkN931L5qloyh4-r-93" target="7er4wkN931L5qloyh4-r-98" edge="1">
          <mxGeometry relative="1" as="geometry" />
        </mxCell>
        <mxCell id="7er4wkN931L5qloyh4-r-93" value="CHANGE&lt;br&gt;DIRECTION" style="rounded=1;whiteSpace=wrap;html=1;" parent="WIyWlLk6GJQsqaUBKTNV-1" vertex="1">
          <mxGeometry x="675" y="280" width="120" height="40" as="geometry" />
        </mxCell>
        <mxCell id="7er4wkN931L5qloyh4-r-94" style="edgeStyle=orthogonalEdgeStyle;rounded=0;orthogonalLoop=1;jettySize=auto;html=1;exitX=0.5;exitY=0;exitDx=0;exitDy=0;entryX=0.505;entryY=1.084;entryDx=0;entryDy=0;entryPerimeter=0;" parent="WIyWlLk6GJQsqaUBKTNV-1" source="7er4wkN931L5qloyh4-r-89" target="7er4wkN931L5qloyh4-r-84" edge="1">
          <mxGeometry relative="1" as="geometry" />
        </mxCell>
        <mxCell id="7er4wkN931L5qloyh4-r-100" style="edgeStyle=orthogonalEdgeStyle;rounded=0;orthogonalLoop=1;jettySize=auto;html=1;exitX=0;exitY=0.5;exitDx=0;exitDy=0;" parent="WIyWlLk6GJQsqaUBKTNV-1" source="7er4wkN931L5qloyh4-r-98" edge="1">
          <mxGeometry relative="1" as="geometry">
            <mxPoint x="450" y="150" as="targetPoint" />
            <Array as="points">
              <mxPoint x="470" y="150" />
              <mxPoint x="470" y="150" />
            </Array>
          </mxGeometry>
        </mxCell>
        <mxCell id="7er4wkN931L5qloyh4-r-101" value="5 second delay" style="edgeLabel;html=1;align=center;verticalAlign=middle;resizable=0;points=[];" parent="7er4wkN931L5qloyh4-r-100" vertex="1" connectable="0">
          <mxGeometry x="-0.5365" y="2" relative="1" as="geometry">
            <mxPoint x="-22" y="-2" as="offset" />
          </mxGeometry>
        </mxCell>
        <mxCell id="7er4wkN931L5qloyh4-r-98" value="DEPOSIT 2" style="rounded=1;whiteSpace=wrap;html=1;" parent="WIyWlLk6GJQsqaUBKTNV-1" vertex="1">
          <mxGeometry x="570" y="130" width="120" height="40" as="geometry" />
        </mxCell>
        <mxCell id="RScdrFz3uXLyJBP3mZ5_-1" style="edgeStyle=orthogonalEdgeStyle;rounded=0;orthogonalLoop=1;jettySize=auto;html=1;exitX=0;exitY=0.5;exitDx=0;exitDy=0;" parent="WIyWlLk6GJQsqaUBKTNV-1" edge="1">
          <mxGeometry relative="1" as="geometry">
            <mxPoint x="220" y="149.859649122807" as="targetPoint" />
            <mxPoint x="370" y="150" as="sourcePoint" />
          </mxGeometry>
        </mxCell>
        <mxCell id="RScdrFz3uXLyJBP3mZ5_-2" value="1 or 3 &lt;br&gt;cubes" style="edgeLabel;html=1;align=center;verticalAlign=middle;resizable=0;points=[];" parent="RScdrFz3uXLyJBP3mZ5_-1" vertex="1" connectable="0">
          <mxGeometry x="-0.6685" y="2" relative="1" as="geometry">
            <mxPoint x="-15" y="-2" as="offset" />
          </mxGeometry>
        </mxCell>
        <mxCell id="4BnXzk5bhoHRPyOUfvlC-10" style="edgeStyle=orthogonalEdgeStyle;rounded=0;orthogonalLoop=1;jettySize=auto;html=1;exitX=0.5;exitY=0;exitDx=0;exitDy=0;entryX=0.5;entryY=0;entryDx=0;entryDy=0;" edge="1" parent="WIyWlLk6GJQsqaUBKTNV-1" source="RScdrFz3uXLyJBP3mZ5_-0" target="WIyWlLk6GJQsqaUBKTNV-3">
          <mxGeometry relative="1" as="geometry" />
        </mxCell>
        <mxCell id="4BnXzk5bhoHRPyOUfvlC-11" value="4 cubes" style="edgeLabel;html=1;align=center;verticalAlign=middle;resizable=0;points=[];" vertex="1" connectable="0" parent="4BnXzk5bhoHRPyOUfvlC-10">
          <mxGeometry x="-0.8029" y="-2" relative="1" as="geometry">
            <mxPoint as="offset" />
          </mxGeometry>
        </mxCell>
        <mxCell id="4BnXzk5bhoHRPyOUfvlC-12" style="edgeStyle=orthogonalEdgeStyle;rounded=0;orthogonalLoop=1;jettySize=auto;html=1;exitX=0.5;exitY=1;exitDx=0;exitDy=0;" edge="1" parent="WIyWlLk6GJQsqaUBKTNV-1" source="RScdrFz3uXLyJBP3mZ5_-0" target="4BnXzk5bhoHRPyOUfvlC-0">
          <mxGeometry relative="1" as="geometry" />
        </mxCell>
        <mxCell id="4BnXzk5bhoHRPyOUfvlC-13" value="2 cubes" style="edgeLabel;html=1;align=center;verticalAlign=middle;resizable=0;points=[];" vertex="1" connectable="0" parent="4BnXzk5bhoHRPyOUfvlC-12">
          <mxGeometry x="-0.2543" y="2" relative="1" as="geometry">
            <mxPoint as="offset" />
          </mxGeometry>
        </mxCell>
        <mxCell id="RScdrFz3uXLyJBP3mZ5_-0" value="Cubes&lt;br&gt;collected" style="rhombus;whiteSpace=wrap;html=1;" parent="WIyWlLk6GJQsqaUBKTNV-1" vertex="1">
          <mxGeometry x="370" y="110" width="80" height="80" as="geometry" />
        </mxCell>
        <mxCell id="RScdrFz3uXLyJBP3mZ5_-7" style="edgeStyle=orthogonalEdgeStyle;rounded=0;orthogonalLoop=1;jettySize=auto;html=1;" parent="WIyWlLk6GJQsqaUBKTNV-1" source="4BnXzk5bhoHRPyOUfvlC-0" edge="1">
          <mxGeometry relative="1" as="geometry">
            <mxPoint x="365" y="25" as="sourcePoint" />
            <mxPoint x="300" y="150" as="targetPoint" />
          </mxGeometry>
        </mxCell>
        <mxCell id="4BnXzk5bhoHRPyOUfvlC-0" value="Change what commands to follow" style="rounded=0;whiteSpace=wrap;html=1;" vertex="1" parent="WIyWlLk6GJQsqaUBKTNV-1">
          <mxGeometry x="353" y="230" width="114" height="50" as="geometry" />
        </mxCell>
        <mxCell id="4BnXzk5bhoHRPyOUfvlC-16" style="edgeStyle=orthogonalEdgeStyle;rounded=0;orthogonalLoop=1;jettySize=auto;html=1;exitX=0.5;exitY=1;exitDx=0;exitDy=0;" edge="1" parent="WIyWlLk6GJQsqaUBKTNV-1" source="4BnXzk5bhoHRPyOUfvlC-8">
          <mxGeometry relative="1" as="geometry">
            <mxPoint x="-49.65217391304327" y="630" as="targetPoint" />
          </mxGeometry>
        </mxCell>
        <mxCell id="4BnXzk5bhoHRPyOUfvlC-17" value="Detected&lt;br&gt;a block to the side" style="edgeLabel;html=1;align=center;verticalAlign=middle;resizable=0;points=[];" vertex="1" connectable="0" parent="4BnXzk5bhoHRPyOUfvlC-16">
          <mxGeometry x="-0.2715" y="2" relative="1" as="geometry">
            <mxPoint as="offset" />
          </mxGeometry>
        </mxCell>
        <mxCell id="4BnXzk5bhoHRPyOUfvlC-8" value="WALKING STATE" style="rounded=1;whiteSpace=wrap;html=1;" vertex="1" parent="WIyWlLk6GJQsqaUBKTNV-1">
          <mxGeometry x="-110" y="520" width="120" height="40" as="geometry" />
        </mxCell>
        <mxCell id="4BnXzk5bhoHRPyOUfvlC-20" style="edgeStyle=orthogonalEdgeStyle;rounded=0;orthogonalLoop=1;jettySize=auto;html=1;exitX=0;exitY=0.5;exitDx=0;exitDy=0;entryX=0;entryY=0.5;entryDx=0;entryDy=0;" edge="1" parent="WIyWlLk6GJQsqaUBKTNV-1" source="4BnXzk5bhoHRPyOUfvlC-19" target="4BnXzk5bhoHRPyOUfvlC-8">
          <mxGeometry relative="1" as="geometry" />
        </mxCell>
        <mxCell id="4BnXzk5bhoHRPyOUfvlC-21" value="Yes" style="edgeLabel;html=1;align=center;verticalAlign=middle;resizable=0;points=[];" vertex="1" connectable="0" parent="4BnXzk5bhoHRPyOUfvlC-20">
          <mxGeometry x="-0.8206" y="2" relative="1" as="geometry">
            <mxPoint as="offset" />
          </mxGeometry>
        </mxCell>
        <mxCell id="4BnXzk5bhoHRPyOUfvlC-22" style="edgeStyle=orthogonalEdgeStyle;rounded=0;orthogonalLoop=1;jettySize=auto;html=1;exitX=0.5;exitY=1;exitDx=0;exitDy=0;entryX=0.5;entryY=0;entryDx=0;entryDy=0;" edge="1" parent="WIyWlLk6GJQsqaUBKTNV-1" source="4BnXzk5bhoHRPyOUfvlC-19" target="4BnXzk5bhoHRPyOUfvlC-24">
          <mxGeometry relative="1" as="geometry">
            <mxPoint x="-50" y="760" as="targetPoint" />
          </mxGeometry>
        </mxCell>
        <mxCell id="4BnXzk5bhoHRPyOUfvlC-23" value="No" style="edgeLabel;html=1;align=center;verticalAlign=middle;resizable=0;points=[];" vertex="1" connectable="0" parent="4BnXzk5bhoHRPyOUfvlC-22">
          <mxGeometry x="0.0143" y="3" relative="1" as="geometry">
            <mxPoint x="-4" y="-5" as="offset" />
          </mxGeometry>
        </mxCell>
        <mxCell id="4BnXzk5bhoHRPyOUfvlC-19" value="Detected noise?" style="rhombus;whiteSpace=wrap;html=1;" vertex="1" parent="WIyWlLk6GJQsqaUBKTNV-1">
          <mxGeometry x="-90" y="630" width="80" height="80" as="geometry" />
        </mxCell>
        <mxCell id="4BnXzk5bhoHRPyOUfvlC-25" style="edgeStyle=orthogonalEdgeStyle;rounded=0;orthogonalLoop=1;jettySize=auto;html=1;exitX=0.5;exitY=1;exitDx=0;exitDy=0;entryX=0.5;entryY=0;entryDx=0;entryDy=0;" edge="1" parent="WIyWlLk6GJQsqaUBKTNV-1" source="4BnXzk5bhoHRPyOUfvlC-24" target="4BnXzk5bhoHRPyOUfvlC-26">
          <mxGeometry relative="1" as="geometry">
            <mxPoint x="-50" y="840" as="targetPoint" />
          </mxGeometry>
        </mxCell>
        <mxCell id="4BnXzk5bhoHRPyOUfvlC-24" value="Move forward&lt;br&gt;a small amount" style="rounded=0;whiteSpace=wrap;html=1;" vertex="1" parent="WIyWlLk6GJQsqaUBKTNV-1">
          <mxGeometry x="-100" y="770" width="100" height="40" as="geometry" />
        </mxCell>
        <mxCell id="4BnXzk5bhoHRPyOUfvlC-28" value="" style="edgeStyle=orthogonalEdgeStyle;rounded=0;orthogonalLoop=1;jettySize=auto;html=1;" edge="1" parent="WIyWlLk6GJQsqaUBKTNV-1" source="4BnXzk5bhoHRPyOUfvlC-26" target="4BnXzk5bhoHRPyOUfvlC-27">
          <mxGeometry relative="1" as="geometry" />
        </mxCell>
        <mxCell id="4BnXzk5bhoHRPyOUfvlC-29" value="Back sensors" style="edgeLabel;html=1;align=center;verticalAlign=middle;resizable=0;points=[];" vertex="1" connectable="0" parent="4BnXzk5bhoHRPyOUfvlC-28">
          <mxGeometry x="0.28" relative="1" as="geometry">
            <mxPoint y="-4" as="offset" />
          </mxGeometry>
        </mxCell>
        <mxCell id="4BnXzk5bhoHRPyOUfvlC-26" value="Rotate 90°" style="whiteSpace=wrap;html=1;" vertex="1" parent="WIyWlLk6GJQsqaUBKTNV-1">
          <mxGeometry x="-100" y="830" width="100" height="25" as="geometry" />
        </mxCell>
        <mxCell id="4BnXzk5bhoHRPyOUfvlC-31" style="edgeStyle=orthogonalEdgeStyle;rounded=0;orthogonalLoop=1;jettySize=auto;html=1;exitX=0.5;exitY=1;exitDx=0;exitDy=0;" edge="1" parent="WIyWlLk6GJQsqaUBKTNV-1" source="4BnXzk5bhoHRPyOUfvlC-27" target="4BnXzk5bhoHRPyOUfvlC-30">
          <mxGeometry relative="1" as="geometry" />
        </mxCell>
        <mxCell id="4BnXzk5bhoHRPyOUfvlC-32" value="Back sensors" style="edgeLabel;html=1;align=center;verticalAlign=middle;resizable=0;points=[];" vertex="1" connectable="0" parent="4BnXzk5bhoHRPyOUfvlC-31">
          <mxGeometry x="0.32" relative="1" as="geometry">
            <mxPoint y="-3" as="offset" />
          </mxGeometry>
        </mxCell>
        <mxCell id="4BnXzk5bhoHRPyOUfvlC-27" value="Move forward" style="whiteSpace=wrap;html=1;" vertex="1" parent="WIyWlLk6GJQsqaUBKTNV-1">
          <mxGeometry x="-100" y="890" width="100" height="30" as="geometry" />
        </mxCell>
        <mxCell id="4BnXzk5bhoHRPyOUfvlC-34" style="edgeStyle=orthogonalEdgeStyle;rounded=0;orthogonalLoop=1;jettySize=auto;html=1;exitX=0.5;exitY=1;exitDx=0;exitDy=0;" edge="1" parent="WIyWlLk6GJQsqaUBKTNV-1" source="4BnXzk5bhoHRPyOUfvlC-30" target="4BnXzk5bhoHRPyOUfvlC-33">
          <mxGeometry relative="1" as="geometry" />
        </mxCell>
        <mxCell id="4BnXzk5bhoHRPyOUfvlC-35" value="Front sensors" style="edgeLabel;html=1;align=center;verticalAlign=middle;resizable=0;points=[];" vertex="1" connectable="0" parent="4BnXzk5bhoHRPyOUfvlC-34">
          <mxGeometry x="-0.68" y="-1" relative="1" as="geometry">
            <mxPoint x="1" y="4" as="offset" />
          </mxGeometry>
        </mxCell>
        <mxCell id="4BnXzk5bhoHRPyOUfvlC-30" value="Rotate 180°" style="whiteSpace=wrap;html=1;" vertex="1" parent="WIyWlLk6GJQsqaUBKTNV-1">
          <mxGeometry x="-100" y="950" width="100" height="30" as="geometry" />
        </mxCell>
        <mxCell id="4BnXzk5bhoHRPyOUfvlC-37" style="edgeStyle=orthogonalEdgeStyle;rounded=0;orthogonalLoop=1;jettySize=auto;html=1;exitX=1;exitY=0.5;exitDx=0;exitDy=0;" edge="1" parent="WIyWlLk6GJQsqaUBKTNV-1" source="4BnXzk5bhoHRPyOUfvlC-33">
          <mxGeometry relative="1" as="geometry">
            <mxPoint x="400" y="820" as="targetPoint" />
          </mxGeometry>
        </mxCell>
        <mxCell id="4BnXzk5bhoHRPyOUfvlC-33" value="Rotate 90°" style="whiteSpace=wrap;html=1;" vertex="1" parent="WIyWlLk6GJQsqaUBKTNV-1">
          <mxGeometry x="-100" y="1010" width="100" height="30" as="geometry" />
        </mxCell>
        <mxCell id="4BnXzk5bhoHRPyOUfvlC-39" value="START&amp;nbsp; &amp;nbsp;" style="triangle;whiteSpace=wrap;html=1;fillColor=#60a917;fontColor=#ffffff;strokeColor=#2D7600;" vertex="1" parent="WIyWlLk6GJQsqaUBKTNV-1">
          <mxGeometry x="80" y="30" width="60" height="80" as="geometry" />
        </mxCell>
      </root>
    </mxGraphModel>
  </diagram>
</mxfile>
